<?xml version="1.0" encoding="UTF-8"?>
<!DOCTYPE svg  PUBLIC '-//W3C//DTD SVG 20010904//EN'  'http://www.w3.org/TR/2001/REC-SVG-20010904/DTD/svg10.dtd'>
<svg width="2e3pt" height="2e3pt" version="1.0" viewBox="0 0 2000.000000 2000.000000" xmlns="http://www.w3.org/2000/svg">
<metadata>Created by potrace 1.11, written by Peter Selinger 2001-2013</metadata>
<g transform="translate(0 2e3) scale(.1 -.1)">
<path d="m4555 19984c-1743-157-3273-1208-4045-2779-279-566-440-1145-495-1780-22-257-22-10593 0-10850 135-1544 959-2921 2255-3767 693-452 1469-720 2300-793 154-13 795-15 5430-15 5681 0 5385-3 5740 51 1277 193 2415 860 3217 1886 105 135 309 440 399 598 349 615 566 1317 629 2040 22 257 22 10593 0 10850-135 1544-959 2921-2255 3767-693 452-1469 720-2300 793-155 13-791 15-5450 14-4345-1-5301-4-5425-15zm11510-2435c340-104 494-507 310-814-102-170-275-267-475-267-311 0-552 241-552 552 0 192 88 358 246 461 143 94 308 118 471 68zm-946-910c79-176 140-323 137-326-2-3-1880-754-4171-1669l-4167-1664-1040 2-1041 3 5059 1987c2783 1093 5064 1987 5070 1987 6 1 75-143 153-320zm601-3909c262-20 496-83 727-195 605-293 1003-836 1110-1515 17-109 18-254 18-2665s-1-2556-18-2665c-107-679-505-1222-1110-1515-231-112-465-175-727-195-187-14-11253-14-11440 0-566 43-1072 310-1424 750-218 274-355 592-413 960-17 109-18 254-18 2665s1 2556 18 2665c107 679 505 1222 1110 1515 221 108 469 176 705 194 163 12 11298 13 11462 1z"/>
</g>
</svg>
